<svg width="52" height="52" viewBox="0 0 52 52" fill="none" xmlns="http://www.w3.org/2000/svg">
<g clip-path="url(#clip0)">
<path d="M25.3039 18.5867L22.6972 21.1667C22.6347 21.2286 22.5851 21.3024 22.5513 21.3836C22.5174 21.4649 22.5 21.552 22.5 21.64C22.5 21.728 22.5174 21.8151 22.5513 21.8964C22.5851 21.9776 22.6347 22.0514 22.6972 22.1133C22.8221 22.2375 22.9911 22.3072 23.1672 22.3072C23.3433 22.3072 23.5123 22.2375 23.6372 22.1133L26.0305 19.74L26.0305 33.3333C26.0305 33.5101 26.1008 33.6797 26.2258 33.8047C26.3508 33.9298 26.5204 34 26.6972 34C26.874 34 27.0436 33.9298 27.1686 33.8047C27.2936 33.6797 27.3639 33.5101 27.3639 33.3333L27.3639 19.7L29.7705 22.1133C29.8325 22.1758 29.9062 22.2254 29.9875 22.2593C30.0687 22.2931 30.1559 22.3105 30.2439 22.3105C30.3319 22.3105 30.419 22.2931 30.5003 22.2593C30.5815 22.2254 30.6552 22.1758 30.7172 22.1133C30.7797 22.0514 30.8293 21.9776 30.8631 21.8964C30.897 21.8151 30.9144 21.728 30.9144 21.64C30.9144 21.552 30.897 21.4649 30.8631 21.3836C30.8293 21.3024 30.7797 21.2286 30.7172 21.1667L28.1305 18.5867C27.7555 18.2121 27.2472 18.0018 26.7172 18.0018C26.1872 18.0018 25.6789 18.2121 25.3039 18.5867Z" fill="#52DBB7"/>
</g>
<rect x="0.75" y="0.75" width="50.5" height="50.5" rx="25.25" stroke="#52DBB7" stroke-width="1.5"/>
<defs>
<clipPath id="clip0">
<rect width="16" height="16" fill="white" transform="translate(18 34) rotate(-90)"/>
</clipPath>
</defs>
</svg>
