<svg width="15" height="15" viewBox="0 0 15 15" fill="none" xmlns="http://www.w3.org/2000/svg">
<circle cx="7.5" cy="7.5" r="7.5" fill="#F53D6B"/>
<path d="M9.64631 10.0829C9.84157 10.2782 10.1582 10.2782 10.3534 10.0829C10.5487 9.88764 10.5487 9.57106 10.3534 9.3758L9.64631 10.0829ZM5.85355 4.87594C5.65829 4.68068 5.34171 4.68068 5.14645 4.87594C4.95118 5.0712 4.95118 5.38778 5.14645 5.58305L5.85355 4.87594ZM10.3534 9.3758L5.85355 4.87594L5.14645 5.58305L9.64631 10.0829L10.3534 9.3758Z" fill="white"/>
<path d="M4.88926 9.3758C4.694 9.57106 4.694 9.88764 4.88926 10.0829C5.08452 10.2782 5.40111 10.2782 5.59637 10.0829L4.88926 9.3758ZM10.0962 5.58305C10.2915 5.38778 10.2915 5.0712 10.0962 4.87594C9.90097 4.68068 9.58438 4.68068 9.38912 4.87594L10.0962 5.58305ZM5.59637 10.0829L10.0962 5.58305L9.38912 4.87594L4.88926 9.3758L5.59637 10.0829Z" fill="white"/>
</svg>
