<svg width="102" height="22" viewBox="0 0 102 22" fill="none" xmlns="http://www.w3.org/2000/svg">
<g clip-path="url(#clip0)">
<path d="M102 9.95292V8.14158H99.7725V5.32562L99.6975 5.34894L97.6052 5.99536L97.564 6.00802V8.14168H94.2616V6.95304C94.2616 6.39958 94.3841 5.97603 94.6257 5.69357C94.8655 5.4145 95.2086 5.27262 95.6462 5.27262C95.9608 5.27262 96.2865 5.34744 96.6143 5.495L96.6965 5.53206V3.62447L96.6578 3.61012C96.352 3.49913 95.9361 3.44324 95.4206 3.44324C94.7708 3.44324 94.1805 3.58601 93.6656 3.86897C93.1505 4.15233 92.7452 4.55685 92.4613 5.07116C92.1785 5.58487 92.0349 6.17819 92.0349 6.83478V8.14158H90.4838V9.95292H92.0349V17.5838H94.2616V9.95292H97.564V14.8022C97.564 16.7994 98.4969 17.8115 100.337 17.8115C100.639 17.8115 100.957 17.7757 101.282 17.7056C101.613 17.6337 101.838 17.5619 101.971 17.4852L102 17.4676V15.6395L101.91 15.7C101.789 15.7813 101.638 15.8478 101.462 15.8972C101.285 15.9475 101.137 15.9727 101.022 15.9727C100.591 15.9727 100.272 15.8554 100.074 15.624C99.8741 15.3905 99.7726 14.9821 99.7726 14.4107V9.95292H102ZM85.5112 15.973C84.703 15.973 84.0658 15.7024 83.6168 15.1694C83.1649 14.6336 82.936 13.8698 82.936 12.8994C82.936 11.8982 83.1649 11.1146 83.617 10.5694C84.0663 10.0278 84.6974 9.75286 85.4931 9.75286C86.2652 9.75286 86.8798 10.0154 87.32 10.5336C87.7625 11.0545 87.9871 11.8318 87.9871 12.8447C87.9871 13.87 87.7759 14.6576 87.3595 15.1845C86.946 15.7074 86.3242 15.973 85.5112 15.973ZM85.6102 7.91411C84.0683 7.91411 82.8436 8.37034 81.9703 9.27013C81.0977 10.17 80.6553 11.4154 80.6553 12.9718C80.6553 14.4502 81.0871 15.6393 81.9391 16.5057C82.791 17.3723 83.9504 17.8113 85.3847 17.8113C86.8794 17.8113 88.0797 17.3487 88.9525 16.4364C89.8253 15.5252 90.2674 14.2916 90.2674 12.7715C90.2674 11.27 89.8525 10.072 89.0338 9.21145C88.2148 8.35051 87.0627 7.91411 85.6102 7.91411ZM77.0652 7.91411C76.0163 7.91411 75.1487 8.18502 74.4859 8.71916C73.8191 9.25648 73.4809 9.96119 73.4809 10.814C73.4809 11.2572 73.5539 11.651 73.6975 11.985C73.8421 12.32 74.0658 12.615 74.363 12.8626C74.6579 13.1082 75.1132 13.3655 75.7164 13.6272C76.2236 13.838 76.6018 14.0162 76.8421 14.1567C77.0769 14.2944 77.2435 14.4328 77.3377 14.5676C77.4291 14.6995 77.4755 14.88 77.4755 15.1028C77.4755 15.7372 77.0051 16.0458 76.037 16.0458C75.678 16.0458 75.2684 15.9701 74.8197 15.8209C74.3743 15.6739 73.9538 15.4586 73.5731 15.1826L73.4807 15.1157V17.2804L73.5146 17.2964C73.8297 17.4432 74.2269 17.5671 74.6951 17.6645C75.1624 17.762 75.587 17.8117 75.9558 17.8117C77.094 17.8117 78.0105 17.5395 78.6793 17.0021C79.3523 16.4611 79.6934 15.7398 79.6934 14.8575C79.6934 14.221 79.5098 13.6753 79.1479 13.2351C78.7884 12.7985 78.1645 12.3976 77.2944 12.0433C76.6011 11.7624 76.157 11.5291 75.9738 11.3501C75.7971 11.1771 75.7075 10.9325 75.7075 10.6228C75.7075 10.3482 75.8182 10.1282 76.0454 9.95004C76.2744 9.77099 76.5932 9.67993 76.993 9.67993C77.364 9.67993 77.7436 9.73911 78.1211 9.85508C78.4983 9.97106 78.8297 10.1264 79.1062 10.3164L79.1972 10.3792V8.3257L79.1623 8.31056C78.9071 8.20006 78.5707 8.10551 78.162 8.02879C77.7552 7.95257 77.3861 7.91411 77.0652 7.91411ZM67.676 15.973C66.868 15.973 66.2306 15.7024 65.7816 15.1694C65.3297 14.6336 65.1012 13.87 65.1012 12.8994C65.1012 11.8982 65.33 11.1146 65.7821 10.5694C66.2311 10.0278 66.8621 9.75286 67.6581 9.75286C68.4299 9.75286 69.0446 10.0154 69.4849 10.5336C69.9275 11.0545 70.1519 11.8318 70.1519 12.8447C70.1519 13.87 69.9407 14.6576 69.5243 15.1845C69.1108 15.7074 68.4892 15.973 67.676 15.973ZM67.7753 7.91411C66.233 7.91411 65.0082 8.37034 64.1354 9.27013C63.2628 10.17 62.82 11.4154 62.82 12.9718C62.82 14.4508 63.2522 15.6393 64.1041 16.5057C64.9561 17.3723 66.1153 17.8113 67.5497 17.8113C69.0442 17.8113 70.2448 17.3487 71.1176 16.4364C71.9902 15.5252 72.4325 14.2916 72.4325 12.7715C72.4325 11.27 72.0175 10.072 71.1986 9.21145C70.3794 8.35051 69.2275 7.91411 67.7753 7.91411ZM59.44 9.77677V8.14158H57.2404V17.5836H59.44V12.7536C59.44 11.9324 59.6244 11.2576 59.9883 10.748C60.3476 10.2445 60.8263 9.98929 61.4108 9.98929C61.609 9.98929 61.8314 10.0223 62.0722 10.0875C62.3106 10.1524 62.4833 10.2228 62.5851 10.297L62.6776 10.3646V8.12544L62.6419 8.10999C62.4371 8.02212 62.1473 7.97778 61.7807 7.97778C61.2279 7.97778 60.7333 8.15712 60.3096 8.51022C59.9377 8.82058 59.6689 9.24612 59.4634 9.77677H59.44ZM53.3014 7.91411C52.2923 7.91411 51.3923 8.13261 50.6267 8.56333C49.8595 8.99504 49.2662 9.61138 48.8626 10.3951C48.4607 11.1769 48.2566 12.0902 48.2566 13.1086C48.2566 14.0008 48.4545 14.8194 48.8455 15.541C49.2367 16.2637 49.7905 16.8292 50.4914 17.2213C51.1914 17.613 52.0004 17.8116 52.8961 17.8116C53.9414 17.8116 54.8339 17.6005 55.5494 17.1844L55.5783 17.1676V15.1328L55.4859 15.2009C55.1618 15.4394 54.7995 15.6297 54.4098 15.7668C54.021 15.9038 53.6666 15.973 53.3558 15.973C52.4927 15.973 51.7999 15.7003 51.297 15.1627C50.7929 14.6244 50.5374 13.8684 50.5374 12.9172C50.5374 11.9601 50.8039 11.1847 51.3291 10.6126C51.8528 10.0422 52.5469 9.75286 53.3921 9.75286C54.1151 9.75286 54.8196 10.0001 55.4861 10.4883L55.5783 10.5559V8.41189L55.5485 8.39495C55.2977 8.25317 54.9556 8.1361 54.531 8.04732C54.1081 7.95875 53.6944 7.91411 53.3014 7.91411ZM46.7417 8.14168H44.5422V17.5836H46.7417V8.14168ZM45.6645 4.11935C45.3024 4.11935 44.9867 4.2438 44.7273 4.49039C44.4668 4.73768 44.3347 5.04904 44.3347 5.41649C44.3347 5.77816 44.4652 6.08384 44.7233 6.32455C44.9796 6.56457 45.2963 6.68622 45.6646 6.68622C46.0327 6.68622 46.3506 6.56457 46.61 6.32495C46.8711 6.08384 47.0035 5.77826 47.0035 5.41649C47.0035 5.06189 46.8747 4.75372 46.6208 4.50035C46.3671 4.24748 46.0452 4.11935 45.6645 4.11935ZM40.1764 7.44504V17.5836H42.4212V4.40839H39.3144L35.3654 14.1945L31.5331 4.40839H28.2998V17.5835H30.4093V7.44404H30.4817L34.5285 17.5836H36.1204L40.104 7.44504H40.1764Z" fill="#706D6E"/>
<path d="M10.3474 10.4545H0V0.00610352H10.3474V10.4545Z" fill="#F1511B"/>
<path d="M21.7719 10.454H11.4248V0.00561523H21.7719V10.454Z" fill="#80CC28"/>
<path d="M10.3471 21.9943H0V11.546H10.3471V21.9943Z" fill="#00ADEF"/>
<path d="M21.7719 21.9943H11.4248V11.546H21.7719V21.9943Z" fill="#FBBC09"/>
</g>
<defs>
<clipPath id="clip0">
<rect width="102" height="22" fill="white"/>
</clipPath>
</defs>
</svg>
