<svg width="93" height="33" viewBox="0 0 93 33" fill="none" xmlns="http://www.w3.org/2000/svg">
<path fill-rule="evenodd" clip-rule="evenodd" d="M66.7033 0H69.6265L56.7433 32.31H53.8218L66.7033 0ZM72.5486 0H78.3923L65.5075 32.31H59.6633L72.5486 0ZM81.3144 0H93.0001L80.1153 32.31H68.429L81.3144 0Z" fill="#C6D373"/>
<path fill-rule="evenodd" clip-rule="evenodd" d="M25.2693 16.3587C25.3032 16.707 26.1601 17.3615 25.4055 19.7505C24.5197 22.5583 24.5394 23.0559 22.6212 27.6599C22.4391 28.0979 18.5311 17.4949 18.5311 17.4949C18.4961 17.3763 18.5311 16.8551 18.7854 16.3444C17.0602 16.3444 12.7345 16.3198 12.4676 16.3444C15.025 19.2206 19.7346 32.1492 19.7346 32.1492H22.812C24.7936 27.6594 25.9764 24.0057 27.8623 19.6039C28.3872 18.3802 28.9477 17.4752 29.717 16.3581H25.2693V16.3587ZM0.880897 27.7381C0.880897 29.0401 0.777005 31.1781 0.143809 32.1968H6.10121C5.46638 31.1781 5.53527 30.0019 5.34608 28.367V21.7009C5.53527 19.8768 6.4796 19.1856 8.23811 19.1856C9.08292 19.1856 10.124 19.4366 10.8786 19.6876C10.9426 18.4923 10.9426 18.4305 10.8786 16.2914C8.23811 16.0404 5.58503 17.6754 5.40787 17.6754C5.02073 17.6754 5.53691 16.2898 4.90372 16.2898C4.48159 16.2898 1.30303 16.2559 0 16.2914C0.915893 17.0307 0.88035 18.6984 0.88035 21.1968V27.7381H0.880897ZM42.2694 24.2178C42.2694 26.5931 42.4269 29.5841 39.2467 29.5841C36.452 29.5841 36.137 27.6414 36.137 25.406V16.345H31.2213C31.9545 16.8344 32.2482 17.665 32.2482 18.8537V28.3374C32.2482 31.411 34.1341 32.2345 36.5094 32.2345C39.4796 32.2345 42.1469 29.8433 42.3908 29.8433C42.5308 29.8433 42.5658 30.9058 42.5658 31.1846L42.5729 32.2022L47.1529 32.1968C46.4196 31.4996 46.4196 30.1364 46.4196 28.7043L46.4207 18.6011L46.5514 16.3444H41.5318C42.2656 16.8338 42.2579 17.9334 42.2579 19.1211L42.2694 24.2178Z" fill="#385C3D"/>
</svg>
