<svg width="84" height="24" viewBox="0 0 84 24" fill="none" xmlns="http://www.w3.org/2000/svg">
<path fill-rule="evenodd" clip-rule="evenodd" d="M1.3125 16.6948L14.3836 22.9493L29.0594 5.79303L1.3125 16.6948Z" fill="#B01842"/>
<path fill-rule="evenodd" clip-rule="evenodd" d="M0 11.9864L13.3078 17.7217L27.2955 0L0 11.9864Z" fill="#F6D43C"/>
<path fill-rule="evenodd" clip-rule="evenodd" d="M33.7287 6.99223C29.091 6.99223 25.3179 10.7653 25.3179 15.4026C25.3179 17.6096 26.1825 19.6897 27.751 21.2582C29.3444 22.852 31.4674 23.73 33.7287 23.73C35.9896 23.73 38.1131 22.852 39.706 21.2582C41.275 19.6897 42.1391 17.6096 42.1391 15.4026C42.1391 13.1479 41.2702 11.0378 39.6931 9.46023C38.9115 8.67488 37.9819 8.05237 36.9582 7.62874C35.9344 7.2051 34.8367 6.98875 33.7287 6.99223ZM33.7287 20.4479C32.4389 20.4479 31.2192 19.9383 30.294 19.0135C29.3338 18.0481 28.7927 16.7432 28.788 15.3816C28.788 13.9825 29.3229 12.6769 30.294 11.7059C31.2178 10.7825 32.438 10.2734 33.7287 10.2734C35.0195 10.2734 36.2392 10.7825 37.1631 11.7059C38.1341 12.6769 38.669 13.9825 38.669 15.3816C38.669 18.1751 36.453 20.4479 33.7287 20.4479ZM83.5379 22.945L78.2907 15.3807L83.5388 7.77529L83.8623 7.30622H79.8244L79.7347 7.43553L76.2536 12.4813L72.8732 7.43887L72.7835 7.30622H68.2097L68.1209 7.43553L64.6213 12.5071L60.6473 7.42122L60.5576 7.30622H53.3583V17.9646L46.2534 7.43792L46.1637 7.30574H42.4355V23.4136H45.9056V12.7495L53.0743 23.2838L53.164 23.4141H56.8288V7.8817L62.5679 15.3902L57.348 22.946L57.0235 23.4146H61.1688L61.2585 23.2833L64.8842 17.9179C64.8813 17.9236 66.5582 15.5553 66.5601 15.5525L70.441 9.9274L74.1893 15.3816L68.9613 22.946L68.6368 23.4146H72.7821L72.8718 23.2833L76.2531 18.2796L79.7342 23.2862L79.8239 23.415H83.8638L83.5379 22.945Z" fill="#90969B"/>
</svg>
