<svg width="91" height="27" viewBox="0 0 91 27" fill="none" xmlns="http://www.w3.org/2000/svg">
<g clip-path="url(#clip0)">
<path d="M13.6466 0C6.10995 0 0 6.04411 0 13.4998C0 20.9562 6.10995 27 13.6466 27C21.1836 27 27.2932 20.9562 27.2932 13.4998C27.2932 6.04459 21.1839 0.000644332 13.6464 0.000644332L13.6466 0ZM19.9048 19.4705C19.6597 19.8682 19.136 19.9928 18.7353 19.7505C15.5307 17.813 11.4972 17.3753 6.74694 18.4488C6.28919 18.5526 5.83291 18.2687 5.72863 17.816C5.62384 17.3632 5.9095 16.9118 6.36839 16.8087C11.5668 15.633 16.0258 16.139 19.6227 18.3134C20.0236 18.5568 20.1507 19.0743 19.9047 19.4708L19.9048 19.4705ZM21.5751 15.7952C21.2665 16.2906 20.6117 16.446 20.1116 16.1418C16.4443 13.9116 10.852 13.2657 6.51327 14.5686C5.95057 14.7367 5.35626 14.423 5.18548 13.8673C5.01601 13.3107 5.33329 12.7239 5.895 12.5546C10.851 11.067 17.0122 11.7876 21.2246 14.3484C21.7249 14.653 21.883 15.3011 21.575 15.7953L21.5751 15.7952ZM21.7185 11.9675C17.3197 9.38318 10.0638 9.14557 5.86451 10.4064C5.1902 10.6087 4.4771 10.2321 4.27275 9.56502C4.0684 8.89763 4.44874 8.19267 5.12355 7.98987C9.94401 6.54224 17.9575 6.82193 23.0212 9.79571C23.6278 10.1518 23.8267 10.9267 23.4672 11.5259C23.1087 12.1259 22.3233 12.3237 21.7187 11.9675H21.7185ZM37.1279 12.4627C34.7716 11.9069 34.3522 11.5168 34.3522 10.697C34.3522 9.92258 35.0892 9.4014 36.1853 9.4014C37.2478 9.4014 38.3013 9.79716 39.4058 10.6119C39.4393 10.6366 39.4811 10.6464 39.5224 10.64C39.5636 10.6338 39.6001 10.6114 39.6242 10.5777L40.7747 8.9734C40.822 8.9073 40.8091 8.81622 40.7454 8.76576C39.4308 7.72227 37.9505 7.21495 36.2202 7.21495C33.6761 7.21495 31.899 8.72529 31.899 10.8863C31.899 13.2036 33.432 14.0242 36.081 14.6575C38.3357 15.1713 38.7162 15.6017 38.7162 16.3712C38.7162 17.2238 37.9467 17.7538 36.7084 17.7538C35.3331 17.7538 34.2113 17.2955 32.9563 16.2204C32.9252 16.1938 32.8825 16.1818 32.8431 16.184C32.8015 16.1874 32.7635 16.2064 32.7371 16.2379L31.4472 17.7566C31.3931 17.8196 31.3999 17.9137 31.4625 17.9682C32.9226 19.2577 34.7184 19.9388 36.6563 19.9388C39.3977 19.9388 41.1692 18.457 41.1692 16.1635C41.1741 14.2274 40.0025 13.1554 37.1328 12.4648L37.1279 12.4627ZM47.3714 10.1639C46.1831 10.1639 45.2085 10.6269 44.4047 11.5756V10.5078C44.4047 10.4234 44.3357 10.3548 44.2506 10.3548H42.1408C42.0555 10.3548 41.9866 10.4234 41.9866 10.5078V22.3729C41.9866 22.4572 42.0555 22.5259 42.1408 22.5259H44.2506C44.3357 22.5259 44.4047 22.4572 44.4047 22.3729V18.6276C45.2086 19.52 46.1834 19.9561 47.3714 19.9561C49.5793 19.9561 51.8145 18.2747 51.8145 15.0606C51.8177 11.8456 49.5819 10.1637 47.3738 10.1637L47.3714 10.1639ZM49.3611 15.0606C49.3611 16.6973 48.342 17.8394 46.8827 17.8394C45.44 17.8394 44.3518 16.6454 44.3518 15.0606C44.3518 13.4759 45.44 12.2817 46.8827 12.2817C48.3184 12.2815 49.3613 13.4499 49.3613 15.0604L49.3611 15.0606ZM57.5432 10.1639C54.6998 10.1639 52.4721 12.3299 52.4721 15.0955C52.4721 17.831 54.6845 19.9743 57.5084 19.9743C60.3619 19.9743 62.5964 17.8156 62.5964 15.0605C62.5964 12.315 60.3769 10.1642 57.5431 10.1642L57.5432 10.1639ZM57.5432 17.8557C56.0308 17.8557 54.8906 16.6536 54.8906 15.0597C54.8906 13.4591 55.9914 12.2976 57.5084 12.2976C59.0306 12.2976 60.1784 13.4997 60.1784 15.0947C60.1784 16.695 59.0703 17.8557 57.5434 17.8557H57.5432ZM68.6684 10.3548H66.3467V8.00664C66.3467 7.92249 66.278 7.85382 66.1927 7.85382H64.0832C63.9978 7.85382 63.9286 7.92249 63.9286 8.00664V10.3548H62.9142C62.8293 10.3548 62.7605 10.4234 62.7605 10.5078V12.3015C62.7605 12.3857 62.8293 12.4545 62.9142 12.4545H63.9286V17.0958C63.9286 18.9714 64.8723 19.9224 66.7334 19.9224C67.4902 19.9224 68.1181 19.7678 68.7098 19.4359C68.7578 19.4093 68.7877 19.358 68.7877 19.3035V17.5954C68.7877 17.5427 68.76 17.4928 68.7143 17.4653C68.6684 17.4367 68.6112 17.4353 68.5641 17.4583C68.1577 17.6607 67.7648 17.754 67.3256 17.754C66.6487 17.754 66.3467 17.45 66.3467 16.7685V12.4553H68.6684C68.7536 12.4553 68.8222 12.3866 68.8222 12.3023V10.5087C68.8255 10.4244 68.757 10.3558 68.6707 10.3558L68.6684 10.3548ZM76.7576 10.364V10.0756C76.7576 9.22713 77.0865 8.84878 77.824 8.84878C78.2639 8.84878 78.6172 8.93519 79.0128 9.06576C79.0615 9.08092 79.1124 9.07334 79.152 9.04448C79.1927 9.01562 79.2157 8.96936 79.2157 8.92035V7.16159C79.2157 7.09436 79.172 7.03488 79.1065 7.01505C78.6885 6.89204 78.1537 6.76582 77.3529 6.76582C75.4043 6.76582 74.3742 7.85139 74.3742 9.90403V10.3457H73.3606C73.2755 10.3457 73.2058 10.4144 73.2058 10.4986V12.3015C73.2058 12.3856 73.2755 12.4545 73.3606 12.4545H74.3742V19.6135C74.3742 19.6978 74.443 19.7665 74.528 19.7665H76.6379C76.7231 19.7665 76.7925 19.6978 76.7925 19.6135V12.455H78.7623L81.7798 19.6122C81.4373 20.3642 81.1004 20.5138 80.6406 20.5138C80.2689 20.5138 79.8775 20.4041 79.4772 20.1874C79.4396 20.1669 79.3949 20.1635 79.3544 20.176C79.3141 20.19 79.2802 20.2196 79.2631 20.2583L78.548 21.8103C78.514 21.8836 78.5432 21.9697 78.6145 22.0077C79.361 22.4077 80.0349 22.5784 80.8678 22.5784C82.4256 22.5784 83.2867 21.8606 84.0458 19.9293L87.706 10.5729C87.7244 10.5258 87.7188 10.4726 87.6897 10.4309C87.6607 10.3894 87.6139 10.3644 87.5627 10.3644H85.3664C85.3006 10.3644 85.2417 10.4059 85.2202 10.467L82.9703 16.8246L80.5058 10.4628C80.4834 10.4036 80.4257 10.3644 80.3618 10.3644H76.7571L76.7576 10.364ZM72.0677 10.3548H69.9579C69.8726 10.3548 69.8032 10.4234 69.8032 10.5078V19.6135C69.8032 19.6978 69.8726 19.7665 69.9579 19.7665H72.0677C72.1527 19.7665 72.2223 19.6978 72.2223 19.6135V10.5084C72.2224 10.4883 72.2184 10.4684 72.2106 10.4498C72.2029 10.4312 72.1915 10.4143 72.1771 10.4001C72.1627 10.3858 72.1456 10.3746 72.1268 10.3669C72.108 10.3593 72.0879 10.3553 72.0675 10.3554L72.0677 10.3548ZM71.0248 6.20871C70.1889 6.20871 69.5107 6.87803 69.5107 7.70486C69.5107 8.53218 70.1891 9.20232 71.0248 9.20232C71.8603 9.20232 72.5378 8.53218 72.5378 7.70486C72.5378 6.87819 71.8599 6.20871 71.0256 6.20871H71.0248ZM89.5075 13.2824C88.6725 13.2824 88.0228 12.6191 88.0228 11.8135C88.0228 11.008 88.6809 10.337 89.5153 10.337C90.3503 10.337 91 11.0002 91 11.8051C91 12.6107 90.3416 13.2824 89.5073 13.2824H89.5075ZM89.5156 10.4831C88.7551 10.4831 88.1797 11.0812 88.1797 11.8135C88.1797 12.5456 88.751 13.1356 89.5079 13.1356C90.2683 13.1356 90.8444 12.538 90.8444 11.8051C90.8444 11.0731 90.2724 10.4831 89.5163 10.4831H89.5156ZM89.8448 11.9562L90.2648 12.5378H89.9106L89.5326 12.0042H89.2075V12.5378H88.9111V10.9961H89.6061C89.9682 10.9961 90.2063 11.1793 90.2063 11.4879C90.2079 11.7407 90.0596 11.8951 89.8461 11.9562H89.8448V11.9562ZM89.5938 11.2606H89.2073V11.7483H89.5938C89.7868 11.7483 89.902 11.6549 89.902 11.5042C89.902 11.3456 89.7863 11.2606 89.594 11.2606H89.5938V11.2606Z" fill="#2EBD59"/>
</g>
<defs>
<clipPath id="clip0">
<rect width="91" height="27" fill="white"/>
</clipPath>
</defs>
</svg>
