<svg width="90" height="23" viewBox="0 0 90 23" fill="none" xmlns="http://www.w3.org/2000/svg">
<g clip-path="url(#clip0)">
<path fill-rule="evenodd" clip-rule="evenodd" d="M28.793 18.1099L29.9162 15.4739C31.1294 16.3901 32.7458 16.8664 34.3406 16.8664C35.5178 16.8664 36.263 16.4083 36.263 15.7139C36.245 13.7724 29.2106 15.2921 29.1566 10.4238C29.1386 7.95148 31.313 6.04633 34.3946 6.04633C36.227 6.04633 38.0558 6.50444 39.3626 7.54791L38.3114 10.2384C37.1162 9.4676 35.6294 8.9186 34.2146 8.9186C33.2534 8.9186 32.6198 9.37671 32.6198 9.96207C32.6378 11.8672 39.7262 10.8238 39.7982 15.4739C39.7982 18.0008 37.6778 19.7787 34.6322 19.7787C32.4002 19.7751 30.3518 19.2442 28.793 18.1099ZM71.9246 14.5213C71.363 15.5103 70.3118 16.1865 69.095 16.1865C67.2986 16.1865 65.8514 14.7213 65.8514 12.9107C65.8514 11.1001 67.3022 9.63485 69.095 9.63485C70.3082 9.63485 71.363 10.3111 71.9246 11.3L75.0242 9.56213C73.865 7.4752 71.633 6.04633 69.095 6.04633C65.3402 6.04633 62.2946 9.12221 62.2946 12.9143C62.2946 16.7064 65.3402 19.7823 69.095 19.7823C71.651 19.7823 73.865 18.3716 75.0242 16.2665L71.9246 14.5213ZM41.357 0.34906H45.2378V19.5205H41.357V0.34906ZM76.547 0.34906V19.5205H80.4278V13.7687L85.0322 19.5205H90.0002L84.143 12.6889L89.5646 6.31538H84.8126L80.4242 11.6054V0.34906H76.547Z" fill="black"/>
<path d="M56.7685 14.5577C56.2069 15.4921 55.0477 16.1865 53.7409 16.1865C51.9445 16.1865 50.4973 14.7213 50.4973 12.9107C50.4973 11.1 51.9481 9.63482 53.7409 9.63482C55.0477 9.63482 56.2069 10.3656 56.7685 11.3182V14.5577ZM56.7685 6.31898V7.8751C56.1349 6.79527 54.5581 6.04266 52.9057 6.04266C49.4965 6.04266 46.8145 9.08218 46.8145 12.8925C46.8145 16.7028 49.4965 19.7787 52.9057 19.7787C54.5545 19.7787 56.1313 19.0297 56.7685 17.9462V19.5024H60.6493V6.31898H56.7685Z" fill="black"/>
<path fill-rule="evenodd" clip-rule="evenodd" d="M4.80607 14.5395C4.80607 15.8775 3.73687 16.9573 2.41207 16.9573C1.08727 16.9573 0.0180664 15.8738 0.0180664 14.5395C0.0180664 13.2052 1.08727 12.1217 2.41207 12.1217H4.80607V14.5395ZM6.00127 14.5395C6.00127 13.2015 7.07047 12.1217 8.39527 12.1217C9.72007 12.1217 10.7893 13.2015 10.7893 14.5395V20.5822C10.7893 21.9202 9.72007 23 8.39527 23C7.07047 23 6.00127 21.9202 6.00127 20.5822V14.5395Z" fill="#E01E5A"/>
<path fill-rule="evenodd" clip-rule="evenodd" d="M8.3952 4.8356C7.0704 4.8356 6.0012 3.75577 6.0012 2.4178C6.0012 1.07983 7.0704 0 8.3952 0C9.72 0 10.7892 1.07983 10.7892 2.4178V4.8356H8.3952ZM8.3952 6.06086C9.72 6.06086 10.7892 7.14069 10.7892 8.47866C10.7892 9.81663 9.72 10.8965 8.3952 10.8965H2.394C1.0692 10.8965 0 9.81299 0 8.47866C0 7.14432 1.0692 6.06086 2.394 6.06086H8.3952Z" fill="#36C5F0"/>
<path fill-rule="evenodd" clip-rule="evenodd" d="M17.9856 8.47866C17.9856 7.14069 19.0548 6.06086 20.3796 6.06086C21.7044 6.06086 22.7736 7.14069 22.7736 8.47866C22.7736 9.81663 21.7044 10.8965 20.3796 10.8965H17.9856V8.47866ZM16.7904 8.47866C16.7904 9.81663 15.7212 10.8965 14.3964 10.8965C13.0716 10.8965 12.0024 9.81663 12.0024 8.47866V2.4178C12.0024 1.07983 13.0716 0 14.3964 0C15.7212 0 16.7904 1.07983 16.7904 2.4178V8.47866Z" fill="#2EB67D"/>
<path fill-rule="evenodd" clip-rule="evenodd" d="M14.3964 18.1644C15.7212 18.1644 16.7904 19.2442 16.7904 20.5822C16.7904 21.9202 15.7212 23 14.3964 23C13.0716 23 12.0024 21.9202 12.0024 20.5822V18.1644H14.3964ZM14.3964 16.9573C13.0716 16.9573 12.0024 15.8775 12.0024 14.5395C12.0024 13.2015 13.0716 12.1217 14.3964 12.1217H20.3976C21.7224 12.1217 22.7916 13.2015 22.7916 14.5395C22.7916 15.8775 21.7224 16.9573 20.3976 16.9573H14.3964Z" fill="#ECB22E"/>
</g>
<defs>
<clipPath id="clip0">
<rect width="90" height="23" fill="white"/>
</clipPath>
</defs>
</svg>
