<svg width="86" height="28" viewBox="0 0 86 28" fill="none" xmlns="http://www.w3.org/2000/svg">
<g clip-path="url(#clip0)">
<path d="M10.5912 0.00268555H11.356C14.011 0.0602588 16.6228 1.12536 18.4986 3.01089C17.806 3.71616 17.0989 4.39265 16.4207 5.09792C15.3674 4.14796 14.0976 3.4139 12.7123 3.15482C10.6634 2.72302 8.45564 3.11164 6.73852 4.2775C4.86268 5.50093 3.59288 7.57357 3.31872 9.79014C3.0157 11.9779 3.63617 14.2809 5.0647 15.9793C6.4355 17.6345 8.52778 18.6708 10.6922 18.7428C12.7123 18.8579 14.8191 18.239 16.2909 16.8285C17.4452 15.8353 17.9791 14.324 18.1523 12.8559C15.757 12.8559 13.3617 12.8703 10.9664 12.8559V9.8909H21.0526C21.5721 13.0718 20.8217 16.6558 18.3976 18.9299C16.7815 20.542 14.5449 21.4919 12.265 21.679C10.0573 21.8949 7.77745 21.4775 5.81503 20.4124C3.46302 19.1602 1.58718 17.0444 0.66369 14.5543C-0.202082 12.2658 -0.216511 9.675 0.591542 7.37207C1.32745 5.27064 2.74154 3.4139 4.55966 2.1185C6.30564 0.837498 8.42678 0.132225 10.5912 0.00268555Z" fill="#3780FF"/>
<path d="M68.4541 0.750916H71.542V21.3046C70.5175 21.3046 69.4786 21.319 68.4541 21.2902C68.4685 14.4534 68.4541 7.60215 68.4541 0.750916Z" fill="#38B137"/>
<path d="M27.9215 7.87567C29.8262 7.51583 31.8896 7.91885 33.4624 9.05592C34.891 10.0634 35.8866 11.6467 36.1896 13.3739C36.5792 15.3746 36.0886 17.5624 34.79 19.1456C33.3903 20.916 31.096 21.866 28.8594 21.722C26.8104 21.6069 24.8191 20.585 23.607 18.9153C22.2362 17.073 21.9044 14.5398 22.6547 12.3808C23.405 10.0634 25.5262 8.29307 27.9215 7.87567ZM28.3544 10.6104C27.5752 10.8119 26.8537 11.2581 26.3342 11.8914C24.9346 13.561 25.0211 16.2814 26.5651 17.8358C27.4453 18.7282 28.7728 19.1456 29.9993 18.9009C31.1393 18.6994 32.1349 17.9366 32.6832 16.9291C33.6356 15.2163 33.3614 12.8558 31.904 11.5172C30.9661 10.6536 29.5953 10.2937 28.3544 10.6104Z" fill="#FA3913"/>
<path d="M43.2167 7.87563C45.3956 7.45822 47.7764 8.06274 49.407 9.58843C52.062 11.9633 52.3506 16.4109 50.0852 19.1456C48.7144 20.8728 46.4922 21.8228 44.2989 21.722C42.2067 21.6644 40.1432 20.6281 38.9023 18.9153C37.5026 17.0298 37.1996 14.439 37.9932 12.2368C38.7869 9.99145 40.8647 8.27864 43.2167 7.87563ZM43.6496 10.6104C42.8704 10.8119 42.1489 11.2581 41.6295 11.877C40.2443 13.5178 40.302 16.195 41.7882 17.7639C42.6684 18.6994 44.0392 19.16 45.309 18.9009C46.4345 18.685 47.4446 17.9366 47.9929 16.929C48.9308 15.2018 48.6566 12.8413 47.1848 11.5027C46.2469 10.6391 44.8761 10.2937 43.6496 10.6104Z" fill="#FCBD06"/>
<path d="M56.1887 8.71046C57.8481 7.67414 60.0559 7.38627 61.8451 8.27866C62.4079 8.52335 62.8696 8.94075 63.3169 9.35816C63.3314 8.96954 63.3169 8.56653 63.3314 8.16351C64.2981 8.17791 65.2649 8.16351 66.2461 8.17791V20.8728C66.2317 22.7871 65.7411 24.8166 64.3559 26.2128C62.8408 27.7528 60.5176 28.2278 58.4253 27.9112C56.1887 27.5801 54.2408 25.9537 53.375 23.8954C54.2408 23.478 55.1498 23.147 56.0445 22.7584C56.5495 23.9386 57.574 24.9461 58.8582 25.1764C60.1424 25.4067 61.6287 25.0901 62.4656 24.025C63.3602 22.9311 63.3602 21.4342 63.3169 20.0956C62.6532 20.7433 61.8884 21.319 60.9649 21.5349C58.9592 22.0963 56.7515 21.4054 55.2075 20.0524C53.6491 18.6994 52.7257 16.6124 52.8122 14.5398C52.8555 12.1936 54.183 9.93389 56.1887 8.71046ZM59.1757 10.5528C58.2955 10.6967 57.473 11.1861 56.9102 11.8626C55.5538 13.4747 55.5538 16.0511 56.9247 17.6343C57.7038 18.5699 58.9592 19.0881 60.1713 18.9585C61.3112 18.8434 62.3646 18.1237 62.9273 17.1306C63.8797 15.4465 63.721 13.158 62.4367 11.6899C61.6431 10.7831 60.3733 10.3369 59.1757 10.5528Z" fill="#3780FF"/>
<path d="M75.2498 9.44454C76.9814 7.83248 79.6509 7.28553 81.873 8.13474C83.9798 8.92638 85.3217 10.9271 85.9999 12.9853C82.8687 14.2807 79.7519 15.5617 76.6207 16.8571C77.0535 17.6775 77.7173 18.426 78.6119 18.7283C79.8673 19.1745 81.368 19.0161 82.4214 18.1813C82.8398 17.8647 83.1717 17.4473 83.4892 17.0442C84.2828 17.5768 85.0764 18.095 85.87 18.6275C84.7445 20.3115 82.8542 21.4918 80.8197 21.6789C78.5686 21.9524 76.1733 21.0888 74.7159 19.3328C72.3206 16.5693 72.5515 11.9346 75.2498 9.44454ZM76.7938 12.1073C76.3032 12.8126 76.1012 13.6762 76.1156 14.5254C78.2079 13.6618 80.3002 12.7982 82.3925 11.9202C82.0462 11.1142 81.2093 10.6248 80.3579 10.4953C78.9871 10.2506 77.5586 10.9846 76.7938 12.1073Z" fill="#FA3913"/>
</g>
<defs>
<clipPath id="clip0">
<rect width="86" height="28" fill="white"/>
</clipPath>
</defs>
</svg>
