<svg width="18" height="18" viewBox="0 0 18 18" fill="none" xmlns="http://www.w3.org/2000/svg">
<path d="M8.6401 4.07388C9.10659 4.07388 9.48479 3.69569 9.48479 3.22919C9.48479 2.38011 10.1756 1.68938 11.0246 1.68938H13.4099C13.8764 1.68938 14.2546 1.31118 14.2546 0.84469C14.2546 0.378196 13.8764 0 13.4099 0H11.0246C9.244 0 7.79541 1.44859 7.79541 3.22919C7.79541 3.69557 8.17361 4.07388 8.6401 4.07388Z" fill="#19B5FE"/>
<path d="M13.2289 6.71533H4.5903C4.1238 6.71533 3.74561 7.09353 3.74561 7.56002C3.74561 8.02652 4.1238 8.40471 4.5903 8.40471H7.79561V17.1551C7.79561 17.6216 8.17381 17.9998 8.6403 17.9998C9.1068 17.9998 9.48499 17.6216 9.48499 17.1551V8.40471H13.229C13.6955 8.40471 14.0737 8.02652 14.0737 7.56002C14.0737 7.09353 13.6954 6.71533 13.2289 6.71533Z" fill="#19B5FE"/>
</svg>
