<svg width="18" height="18" viewBox="0 0 18 18" fill="none" xmlns="http://www.w3.org/2000/svg">
<g clip-path="url(#clip0)">
<path d="M1.70965 4.23633C1.21985 4.23633 0.822754 4.63342 0.822754 5.12323V17.114C0.822754 17.6038 1.21985 18.0009 1.70965 18.0009C2.19946 18.0009 2.59655 17.6038 2.59655 17.114V5.12323C2.59655 4.6333 2.19946 4.23633 1.70965 4.23633Z" fill="#97ADB8"/>
<path d="M8.04217 13.6055C7.55237 13.6055 7.15527 14.0026 7.15527 14.4924V17.1131C7.15527 17.6029 7.55237 18 8.04217 18C8.53197 18 8.92907 17.6029 8.92907 17.1131V14.4924C8.92907 14.0026 8.53197 13.6055 8.04217 13.6055Z" fill="#97ADB8"/>
<path d="M12.1661 5.19098C10.9329 5.19098 9.80308 5.63964 8.92907 6.3812V5.12323C8.92907 4.63342 8.53197 4.23633 8.04217 4.23633C7.55237 4.23633 7.15527 4.63342 7.15527 5.12323V10.2007C7.15527 10.2008 7.15527 10.2009 7.15527 10.201C7.15527 10.2012 7.15527 10.2014 7.15527 10.2017C7.15527 10.6915 7.55237 11.0886 8.04217 11.0886C8.53197 11.0886 8.92907 10.6915 8.92907 10.2017C8.92907 8.41681 10.3812 6.96478 12.1661 6.96478C13.9509 6.96478 15.4029 8.41681 15.4029 10.2017V17.114C15.4029 17.6038 15.8 18.0009 16.2898 18.0009C16.7798 18.0009 17.1767 17.6038 17.1767 17.114V10.2017C17.1767 7.43874 14.9291 5.19098 12.1661 5.19098Z" fill="#97ADB8"/>
<path d="M1.70965 1.7738C1.94261 1.7738 2.17202 1.67919 2.33757 1.51482C2.50195 1.34927 2.59655 1.12104 2.59655 0.88808C2.59655 0.653939 2.50195 0.425711 2.33757 0.260157C2.17202 0.0957849 1.94261 0 1.70965 0C1.47669 0 1.24846 0.0957849 1.08291 0.260157C0.917356 0.425711 0.822754 0.653939 0.822754 0.88808C0.822754 1.12104 0.917356 1.34927 1.08291 1.51482C1.24846 1.67919 1.47669 1.7738 1.70965 1.7738Z" fill="#97ADB8"/>
</g>
<defs>
<clipPath id="clip0">
<rect width="18" height="18" fill="white"/>
</clipPath>
</defs>
</svg>
