<svg width="60" height="60" viewBox="0 0 60 60" fill="none" xmlns="http://www.w3.org/2000/svg">
<circle cx="30" cy="30" r="30" fill="#DAF2FF"/>
<path d="M38.9954 39V38.9993H38.9999V32.3978C38.9999 29.1682 38.3047 26.6805 34.5292 26.6805C32.7142 26.6805 31.4962 27.6765 30.9989 28.6207H30.9464V26.982H27.3667V38.9993H31.0942V33.0488C31.0942 31.482 31.3912 29.967 33.3314 29.967C35.2432 29.967 35.2717 31.755 35.2717 33.1493V39H38.9954Z" fill="#0077B5"/>
<path d="M21.2974 26.9827H25.0294V39H21.2974V26.9827Z" fill="#0077B5"/>
<path d="M23.1615 21C21.9683 21 21 21.9683 21 23.1615C21 24.3548 21.9683 25.3433 23.1615 25.3433C24.3547 25.3433 25.323 24.3548 25.323 23.1615C25.3222 21.9683 24.354 21 23.1615 21V21Z" fill="#0077B5"/>
</svg>
