<svg width="224" height="38" viewBox="0 0 224 38" fill="none" xmlns="http://www.w3.org/2000/svg">
<g clip-path="url(#clip0)">
<path d="M41.0979 32.2534C42.2015 34.2789 40.7402 36.736 38.4342 36.7545C34.4326 36.7853 28.5473 35.9159 23.1306 31.6153L16.8477 27.2529C21.5152 18.5961 28.3963 17.2859 33.1224 17.6065L41.0979 32.2534Z" fill="#52DBB7"/>
<path d="M16.848 27.2529L11.681 32.9655C9.50139 35.3764 6.40306 36.7544 3.15367 36.7544H1.82185C0.434537 36.7544 -0.444093 35.2654 0.227982 34.0538L5.01883 25.4124C8.81081 24.9623 13.6232 24.9315 16.848 27.2529Z" fill="#52DBB7"/>
<path d="M33.1229 17.6065C28.3968 17.2859 21.5157 18.5992 16.8482 27.2529C13.6235 24.9284 8.81103 24.9593 5.01904 25.4155L18.0351 1.92988C19.4687 -0.656681 23.1867 -0.641267 24.6017 1.95146L33.1229 17.6065Z" fill="#19B5FE"/>
<path d="M69.8063 23.1188L68.3204 18.704H59.8239L58.3317 23.1188H53.7598L61.9387 1.03894H66.1377L74.3783 23.1188H69.8063ZM61.0848 14.9706H67.0656L64.0906 6.29531H64.029L61.0848 14.9706Z" fill="#52DBB7"/>
<path d="M86.442 7.94159H90.5145V23.1157H86.442V21.2505H86.3803C85.218 22.6594 83.7167 23.3654 81.87 23.3654C78.1582 23.3654 76.3022 21.2721 76.3022 17.0824V7.94159H80.3439V15.9972C80.3439 17.3661 80.5567 18.331 80.9821 18.889C81.4076 19.4501 82.1074 19.7276 83.0816 19.7276C84.0157 19.7276 84.808 19.3391 85.4616 18.5622C86.1152 17.7853 86.442 16.7032 86.442 15.3128V7.94159Z" fill="#52DBB7"/>
<path d="M99.2234 23.3654C97.8762 23.3654 96.8187 22.94 96.0511 22.0891C95.2834 21.2382 94.9012 19.9865 94.9012 18.3279V11.2989H93.0977V7.94158H94.9012V2.96576L98.9429 2.53107V7.94158H103.08V11.2989H98.9429V17.7668C98.9429 19.0524 99.3899 19.6937 100.281 19.6937C100.86 19.6937 101.505 19.5179 102.208 19.1665L103.265 22.4313C102.106 23.0571 100.759 23.3654 99.2234 23.3654Z" fill="#52DBB7"/>
<path d="M112.597 23.3654C110.214 23.3654 108.275 22.6286 106.783 21.1581C105.291 19.6875 104.544 17.81 104.544 15.5287C104.544 13.2473 105.291 11.3729 106.783 9.89926C108.275 8.42871 110.214 7.69189 112.597 7.69189C114.962 7.69189 116.898 8.41638 118.411 9.86843C119.925 11.3205 120.68 13.2072 120.68 15.5287C120.68 17.8501 119.922 19.7368 118.411 21.1889C116.898 22.641 114.959 23.3654 112.597 23.3654ZM112.597 19.7276C113.716 19.7276 114.653 19.333 115.412 18.5468C116.167 17.7576 116.546 16.7526 116.546 15.5317C116.546 14.2893 116.173 13.2781 115.427 12.5012C114.681 11.7243 113.738 11.3359 112.597 11.3359C111.435 11.3359 110.488 11.7367 109.751 12.5321C109.015 13.3305 108.648 14.3294 108.648 15.5317C108.648 16.7125 109.021 17.7083 109.767 18.516C110.513 19.3237 111.456 19.7276 112.597 19.7276Z" fill="#52DBB7"/>
<path d="M142.449 7.69495C146.016 7.69495 147.798 9.89306 147.798 14.2862V23.1188H143.726V15.282C143.726 12.6492 142.844 11.3328 141.083 11.3328C140.193 11.3328 139.45 11.6997 138.861 12.4365C138.269 13.1733 137.973 14.203 137.973 15.5317V23.1188H133.9V15.282C133.9 12.6492 133.009 11.3328 131.227 11.3328C130.275 11.3328 129.501 11.6997 128.912 12.4365C128.32 13.1733 128.024 14.203 128.024 15.5317V23.1188H123.952V7.94158H128.024V9.96397H128.055C129.257 8.45026 130.771 7.69495 132.596 7.69495C134.711 7.69495 136.212 8.50267 137.106 10.1212H137.168C138.426 8.50267 140.189 7.69495 142.449 7.69495Z" fill="#52DBB7"/>
<path d="M162.537 7.94161H166.579V23.1157H162.722V21.2814H162.63C161.572 22.6718 160.059 23.3654 158.089 23.3654C155.974 23.3654 154.238 22.644 152.879 21.2043C151.519 19.7646 150.841 17.8809 150.841 15.5595C150.841 13.2781 151.519 11.3976 152.879 9.91468C154.235 8.43179 155.943 7.69189 157.993 7.69189C159.88 7.69189 161.363 8.34547 162.439 9.64955H162.531V7.94161H162.537ZM158.838 19.7276C159.917 19.7276 160.829 19.3453 161.576 18.5777C162.322 17.81 162.695 16.8173 162.695 15.5934C162.695 14.3695 162.331 13.3552 161.606 12.5444C160.882 11.7367 159.969 11.3328 158.869 11.3328C157.75 11.3328 156.816 11.7213 156.069 12.4982C155.323 13.2751 154.95 14.3078 154.95 15.5934C154.95 16.8173 155.314 17.8131 156.039 18.5777C156.763 19.3453 157.697 19.7276 158.838 19.7276Z" fill="#52DBB7"/>
<path d="M175.288 23.3654C173.941 23.3654 172.884 22.94 172.116 22.0891C171.348 21.2382 170.966 19.9865 170.966 18.3279V11.2989H169.163V7.94158H170.966V2.96576L175.008 2.53107V7.94158H179.145V11.2989H175.008V17.7668C175.008 19.0524 175.455 19.6937 176.346 19.6937C176.925 19.6937 177.57 19.5179 178.273 19.1665L179.33 22.4313C178.168 23.0571 176.821 23.3654 175.288 23.3654Z" fill="#52DBB7"/>
<path d="M195.561 15.3745C195.561 16.1822 195.53 16.6693 195.469 16.8358H184.802C185.052 17.7484 185.517 18.4636 186.202 18.9815C186.886 19.4995 187.715 19.7584 188.69 19.7584C190.16 19.78 191.375 19.2097 192.327 18.0474L194.969 20.5045C193.456 22.4128 191.27 23.3654 188.409 23.3654C186.149 23.3654 184.284 22.641 182.81 21.1889C181.337 19.7368 180.603 17.8409 180.603 15.4978C180.603 13.2165 181.312 11.3451 182.733 9.88385C184.155 8.42255 185.952 7.69189 188.128 7.69189C190.327 7.69189 192.115 8.4133 193.493 9.85302C194.874 11.2958 195.561 13.1363 195.561 15.3745ZM188.255 11.2712C187.404 11.2712 186.679 11.4993 186.078 11.9556C185.477 12.4118 185.061 13.0654 184.836 13.9132H191.523C191.063 12.1498 189.975 11.2712 188.255 11.2712Z" fill="#52DBB7"/>
<path d="M199.203 23.1188V1.03894H203.587V19.2312H213.412V23.1188H199.203Z" fill="#19B5FE"/>
<path d="M216.958 23.1188V1.03894H221.341V23.1188H216.958Z" fill="#19B5FE"/>
<path d="M53.0537 36.0855V29.4202H53.8707V35.3332H57.1756V36.0855H53.0537Z" fill="#AAAAAA"/>
<path d="M58.6549 30.6688C58.4977 30.6688 58.3682 30.6164 58.2664 30.5147C58.1647 30.4129 58.1123 30.2834 58.1123 30.1355C58.1123 29.9844 58.1647 29.858 58.2664 29.7563C58.3682 29.6545 58.5007 29.6021 58.6549 29.6021C58.8059 29.6021 58.9323 29.6545 59.0402 29.7624C59.1451 29.8703 59.2006 29.9936 59.2006 30.1385C59.2006 30.2896 59.1481 30.416 59.0402 30.5177C58.9323 30.6195 58.8059 30.6688 58.6549 30.6688ZM58.2695 36.0855V31.5135H59.031V36.0855H58.2695Z" fill="#AAAAAA"/>
<path d="M62.984 31.4581C63.4896 31.4581 63.8904 31.6184 64.1864 31.9421C64.4792 32.2658 64.6272 32.7406 64.6272 33.3726V36.0855H63.8657V33.5884C63.8657 32.6357 63.4927 32.161 62.7497 32.161C62.312 32.161 61.9636 32.3059 61.7046 32.5987C61.4457 32.8885 61.3162 33.2924 61.3162 33.8042V36.0855H60.5547V31.5136H61.3162V32.312H61.3254C61.7231 31.7417 62.275 31.4581 62.984 31.4581Z" fill="#AAAAAA"/>
<path d="M67.7284 33.9953H67.7099L66.7542 35.0527V36.0855H66.002V29.1767H66.7542V34.0107L66.7758 34.0138L69.017 31.5166H69.945L68.2371 33.4126L69.9543 36.0886H69.0818L67.7284 33.9953Z" fill="#AAAAAA"/>
<path d="M74.6864 33.7302C74.6864 33.7795 74.6833 33.8473 74.6771 33.9275L74.6679 34.0415H71.1472C71.1965 34.467 71.363 34.8092 71.6405 35.0651C71.9179 35.321 72.2632 35.4504 72.6763 35.4504C73.2066 35.4504 73.6382 35.2439 73.9619 34.8308L74.4983 35.2901C74.0544 35.8605 73.4378 36.1441 72.6486 36.1441C71.9919 36.1441 71.4493 35.9283 71.0208 35.4905C70.5923 35.0558 70.3765 34.4947 70.3765 33.8072C70.3765 33.1259 70.583 32.5648 70.9992 32.1209C71.4154 31.68 71.9364 31.4581 72.5623 31.4581C73.1942 31.4581 73.706 31.6708 74.0975 32.0962C74.4891 32.5217 74.6864 33.0673 74.6864 33.7302ZM73.4933 32.5001C73.2621 32.275 72.963 32.161 72.6023 32.161C72.2385 32.161 71.9272 32.272 71.6682 32.4939C71.4092 32.7159 71.2428 33.0211 71.1749 33.4095H73.9342C73.8725 33.0273 73.7245 32.7251 73.4933 32.5001Z" fill="#AAAAAA"/>
<path d="M79.3602 29.1767H80.1216V36.0855H79.4002V35.3641H79.3817C78.9933 35.882 78.4692 36.1441 77.8064 36.1441C77.162 36.1441 76.6256 35.9314 76.2002 35.5059C75.7747 35.0805 75.562 34.5225 75.562 33.835C75.562 33.1598 75.7716 32.5956 76.194 32.1394C76.6164 31.6862 77.1497 31.4581 77.794 31.4581C78.4445 31.4581 78.9625 31.7047 79.3509 32.1979H79.3602V29.1767ZM77.868 35.4473C78.2811 35.4473 78.6387 35.2963 78.9378 34.9911C79.2368 34.6889 79.3879 34.3005 79.3879 33.8319C79.3879 33.3633 79.243 32.9656 78.9563 32.645C78.6696 32.3243 78.3089 32.161 77.8773 32.161C77.4395 32.161 77.0726 32.3151 76.7736 32.6265C76.4776 32.9348 76.3266 33.3386 76.3266 33.8319C76.3266 34.3005 76.4684 34.6889 76.7551 34.9911C77.0418 35.2963 77.4118 35.4473 77.868 35.4473Z" fill="#AAAAAA"/>
<path d="M81.7432 36.0855V29.4202H82.5694V36.0855H81.7432Z" fill="#AAAAAA"/>
<path d="M86.6144 31.4581C87.12 31.4581 87.5208 31.6184 87.8167 31.9421C88.1096 32.2658 88.2576 32.7406 88.2576 33.3726V36.0855H87.4961V33.5884C87.4961 32.6357 87.1231 32.161 86.3801 32.161C85.9423 32.161 85.5939 32.3059 85.335 32.5987C85.076 32.8885 84.9465 33.2924 84.9465 33.8042V36.0855H84.1851V31.5136H84.9465V32.312H84.9558C85.3535 31.7417 85.9084 31.4581 86.6144 31.4581Z" fill="#AAAAAA"/>
<path d="M96.7696 36.0855L96.1746 34.4608H93.2027L92.6108 36.0855H91.7476L94.2725 29.4202H95.0894L97.6329 36.0855H96.7696ZM93.4647 33.7486H95.9157L94.6979 30.416H94.6794L93.4647 33.7486Z" fill="#AAAAAA"/>
<path d="M102.084 29.1767H102.846V36.0855H102.124V35.3641H102.106C101.717 35.882 101.193 36.1441 100.531 36.1441C99.8862 36.1441 99.3497 35.9314 98.9243 35.5059C98.4989 35.0805 98.2861 34.5225 98.2861 33.835C98.2861 33.1598 98.4958 32.5956 98.9181 32.1394C99.3405 31.6862 99.8738 31.4581 100.518 31.4581C101.169 31.4581 101.687 31.7047 102.075 32.1979H102.084V29.1767ZM100.592 35.4473C101.005 35.4473 101.363 35.2963 101.662 34.9911C101.961 34.6889 102.112 34.3005 102.112 33.8319C102.112 33.3633 101.967 32.9656 101.68 32.645C101.394 32.3243 101.033 32.161 100.601 32.161C100.164 32.161 99.7968 32.3151 99.4977 32.6265C99.2018 32.9348 99.0507 33.3386 99.0507 33.8319C99.0507 34.3005 99.1925 34.6889 99.4792 34.9911C99.7629 35.2963 100.133 35.4473 100.592 35.4473Z" fill="#AAAAAA"/>
<path d="M105.698 36.141C104.992 36.141 104.394 35.9221 103.907 35.4843L104.301 34.9109C104.696 35.2747 105.161 35.4566 105.701 35.4566C105.963 35.4566 106.173 35.398 106.33 35.2778C106.487 35.1606 106.564 35.0157 106.564 34.8462C106.564 34.6704 106.487 34.5379 106.333 34.4485C106.179 34.3591 105.911 34.2481 105.531 34.1155C105.507 34.1093 105.488 34.1001 105.476 34.0939C105.032 33.9367 104.693 33.7579 104.459 33.5575C104.224 33.3571 104.107 33.0673 104.107 32.685C104.107 32.3336 104.249 32.0407 104.536 31.8064C104.819 31.5721 105.183 31.455 105.621 31.455C106.204 31.455 106.725 31.643 107.187 32.0191L106.792 32.6203C106.429 32.3089 106.025 32.1517 105.581 32.1517C105.399 32.1517 105.235 32.201 105.094 32.3028C104.949 32.4045 104.878 32.534 104.878 32.6912C104.878 32.8546 104.949 32.9872 105.087 33.0889C105.226 33.1906 105.445 33.2985 105.738 33.4095C105.784 33.428 105.874 33.465 106.006 33.5174C106.139 33.5698 106.228 33.6068 106.271 33.6253C106.314 33.6438 106.392 33.6747 106.503 33.7178C106.614 33.761 106.688 33.7949 106.725 33.8165C106.762 33.838 106.82 33.875 106.9 33.9244C106.977 33.9737 107.033 34.0169 107.061 34.0538C107.088 34.0908 107.125 34.1402 107.175 34.2018C107.221 34.2635 107.255 34.3251 107.273 34.3837C107.292 34.4423 107.307 34.5101 107.32 34.5903C107.332 34.6673 107.338 34.7506 107.338 34.8369C107.338 35.213 107.196 35.5244 106.916 35.771C106.626 36.0177 106.222 36.141 105.698 36.141Z" fill="#AAAAAA"/>
<path d="M116.886 29.4202H117.703V36.0855H116.886V30.9802L116.83 30.9586L114.66 34.7197L114.151 34.7382L111.981 30.9771H111.959V36.0824H111.142V29.4202H111.968L114.419 33.727H114.438L116.886 29.4202Z" fill="#AAAAAA"/>
<path d="M122.817 31.5136H123.578V36.0855H122.848V35.3641H122.838C122.45 35.882 121.92 36.1441 121.241 36.1441C120.597 36.1441 120.061 35.9314 119.635 35.5059C119.21 35.0805 118.997 34.5225 118.997 33.835C118.997 33.1598 119.207 32.5957 119.632 32.1394C120.055 31.6862 120.588 31.4581 121.232 31.4581C121.883 31.4581 122.41 31.7047 122.808 32.198H122.817V31.5136ZM121.306 35.4474C121.732 35.4474 122.095 35.2963 122.394 34.9911C122.694 34.689 122.845 34.3005 122.845 33.8319C122.845 33.3633 122.7 32.9656 122.407 32.645C122.117 32.3244 121.75 32.161 121.312 32.161C120.875 32.161 120.508 32.3151 120.209 32.6265C119.913 32.9348 119.762 33.3386 119.762 33.8319C119.762 34.3005 119.903 34.689 120.19 34.9911C120.477 35.2963 120.847 35.4474 121.306 35.4474Z" fill="#AAAAAA"/>
<path d="M127.404 31.4581C127.91 31.4581 128.311 31.6184 128.607 31.9421C128.9 32.2658 129.048 32.7406 129.048 33.3726V36.0855H128.286V33.5884C128.286 32.6357 127.913 32.161 127.17 32.161C126.732 32.161 126.384 32.3059 126.125 32.5987C125.866 32.8885 125.737 33.2924 125.737 33.8042V36.0855H124.975V31.5136H125.737V32.312H125.746C126.144 31.7417 126.698 31.4581 127.404 31.4581Z" fill="#AAAAAA"/>
<path d="M133.965 31.5136H134.726V36.0855H133.993V35.3641H133.983C133.595 35.882 133.065 36.1441 132.386 36.1441C131.742 36.1441 131.206 35.9314 130.78 35.5059C130.355 35.0805 130.142 34.5225 130.142 33.835C130.142 33.1598 130.352 32.5957 130.774 32.1394C131.196 31.6862 131.73 31.4581 132.374 31.4581C133.025 31.4581 133.552 31.7047 133.949 32.198H133.959V31.5136H133.965ZM132.454 35.4474C132.88 35.4474 133.243 35.2963 133.543 34.9911C133.842 34.689 133.993 34.3005 133.993 33.8319C133.993 33.3633 133.848 32.9656 133.555 32.645C133.265 32.3244 132.898 32.161 132.46 32.161C132.023 32.161 131.656 32.3151 131.357 32.6265C131.061 32.9348 130.91 33.3386 130.91 33.8319C130.91 34.3005 131.052 34.689 131.338 34.9911C131.628 35.2963 131.998 35.4474 132.454 35.4474Z" fill="#AAAAAA"/>
<path d="M139.597 31.5135H140.349V35.7371C140.349 36.4369 140.167 36.9888 139.801 37.3926C139.434 37.7965 138.869 37.9969 138.105 37.9969C137.417 37.9969 136.798 37.8304 136.246 37.5005L136.425 36.7976C136.995 37.1183 137.541 37.2755 138.068 37.2755C138.561 37.2755 138.943 37.1491 139.209 36.8963C139.474 36.6435 139.606 36.3229 139.606 35.9344V35.2963H139.588C139.206 35.7649 138.691 35.9992 138.04 35.9992C137.414 35.9992 136.89 35.7895 136.465 35.3703C136.039 34.951 135.827 34.4053 135.827 33.7363C135.827 33.0858 136.033 32.5432 136.449 32.1085C136.866 31.6738 137.384 31.455 138.003 31.455C138.648 31.455 139.172 31.6862 139.579 32.1486H139.597V31.5135ZM138.096 35.287C138.552 35.287 138.922 35.139 139.202 34.84C139.483 34.544 139.625 34.1618 139.625 33.6993C139.625 33.2492 139.48 32.8823 139.187 32.5956C138.897 32.312 138.53 32.1702 138.093 32.1702C137.661 32.1702 137.303 32.3151 137.023 32.608C136.742 32.8978 136.6 33.2677 136.6 33.7116C136.6 34.1864 136.745 34.5687 137.032 34.8554C137.322 35.1421 137.676 35.287 138.096 35.287Z" fill="#AAAAAA"/>
<path d="M145.772 33.7302C145.772 33.7795 145.769 33.8473 145.763 33.9275L145.754 34.0415H142.233C142.282 34.467 142.449 34.8092 142.726 35.0651C143.004 35.321 143.349 35.4504 143.762 35.4504C144.293 35.4504 144.724 35.2439 145.048 34.8308L145.584 35.2901C145.14 35.8605 144.524 36.1441 143.735 36.1441C143.078 36.1441 142.535 35.9283 142.107 35.4905C141.678 35.0558 141.462 34.4947 141.462 33.8072C141.462 33.1259 141.669 32.5648 142.085 32.1209C142.501 31.68 143.022 31.4581 143.648 31.4581C144.28 31.4581 144.792 31.6708 145.183 32.0962C145.578 32.5217 145.772 33.0673 145.772 33.7302ZM144.582 32.5001C144.351 32.275 144.052 32.161 143.691 32.161C143.328 32.161 143.016 32.272 142.757 32.4939C142.498 32.7159 142.332 33.0211 142.264 33.4095H145.023C144.958 33.0273 144.814 32.7251 144.582 32.5001Z" fill="#AAAAAA"/>
<path d="M152.361 31.4581C153.43 31.4581 153.967 32.1086 153.967 33.4096V36.0855H153.205V33.6161C153.205 33.1105 153.119 32.7406 152.946 32.5093C152.774 32.2781 152.502 32.161 152.135 32.161C151.772 32.161 151.47 32.312 151.226 32.6111C150.982 32.9101 150.859 33.3109 150.859 33.8134V36.0855H150.098V33.6069C150.098 32.6419 149.734 32.161 149.009 32.161C148.627 32.161 148.313 32.312 148.063 32.6111C147.813 32.9101 147.687 33.3109 147.687 33.8134V36.0855H146.935V31.5136H147.687V32.3028H147.696C147.884 32.0346 148.112 31.8249 148.38 31.68C148.649 31.5321 148.935 31.4581 149.234 31.4581C149.965 31.4581 150.452 31.7571 150.69 32.3583H150.699C151.075 31.7571 151.63 31.4581 152.361 31.4581Z" fill="#AAAAAA"/>
<path d="M159.343 33.7302C159.343 33.7795 159.34 33.8473 159.334 33.9275L159.325 34.0415H155.804C155.853 34.467 156.02 34.8092 156.297 35.0651C156.575 35.321 156.92 35.4504 157.333 35.4504C157.863 35.4504 158.295 35.2439 158.619 34.8308L159.155 35.2901C158.711 35.8605 158.095 36.1441 157.305 36.1441C156.649 36.1441 156.106 35.9283 155.678 35.4905C155.249 35.0558 155.033 34.4947 155.033 33.8072C155.033 33.1259 155.24 32.5648 155.656 32.1209C156.072 31.68 156.593 31.4581 157.219 31.4581C157.851 31.4581 158.363 31.6708 158.754 32.0962C159.149 32.5217 159.343 33.0673 159.343 33.7302ZM158.153 32.5001C157.922 32.275 157.623 32.161 157.262 32.161C156.898 32.161 156.587 32.272 156.328 32.4939C156.069 32.7159 155.903 33.0211 155.835 33.4095H158.594C158.532 33.0273 158.384 32.7251 158.153 32.5001Z" fill="#AAAAAA"/>
<path d="M162.929 31.4581C163.434 31.4581 163.835 31.6184 164.131 31.9421C164.424 32.2658 164.572 32.7406 164.572 33.3726V36.0855H163.811V33.5884C163.811 32.6357 163.438 32.161 162.695 32.161C162.257 32.161 161.908 32.3059 161.649 32.5987C161.39 32.8885 161.261 33.2924 161.261 33.8042V36.0855H160.5V31.5136H161.261V32.312H161.27C161.668 31.7417 162.223 31.4581 162.929 31.4581Z" fill="#AAAAAA"/>
<path d="M167.239 36.141C166.443 36.141 166.046 35.6693 166.046 34.7228V32.1702H165.463V31.5135H166.046V29.9567L166.807 29.8734V31.5166H168.327V32.1733H166.807V34.6149C166.807 34.8955 166.85 35.102 166.933 35.2346C167.017 35.3672 167.165 35.4319 167.371 35.4319C167.609 35.4319 167.864 35.3548 168.142 35.1976L168.348 35.8635C168.006 36.0485 167.639 36.141 167.239 36.141Z" fill="#AAAAAA"/>
<path d="M174.024 36.141C173.324 36.141 172.754 35.919 172.316 35.4751C171.878 35.0312 171.659 34.4732 171.659 33.8042C171.659 33.1352 171.878 32.5772 172.316 32.1301C172.754 31.6831 173.324 31.4581 174.024 31.4581C174.699 31.4581 175.26 31.677 175.704 32.1147C176.148 32.5525 176.37 33.1167 176.37 33.8042C176.37 34.4917 176.148 35.0527 175.704 35.4874C175.26 35.9252 174.699 36.141 174.024 36.141ZM174.024 35.4474C174.468 35.4474 174.841 35.2932 175.146 34.9818C175.448 34.6736 175.602 34.2789 175.602 33.8042C175.602 33.3232 175.451 32.9286 175.152 32.6203C174.853 32.3151 174.477 32.161 174.027 32.161C173.558 32.161 173.173 32.3182 172.877 32.6357C172.581 32.9502 172.43 33.3417 172.43 33.8042C172.43 34.2666 172.578 34.6581 172.877 34.9726C173.17 35.2901 173.555 35.4474 174.024 35.4474Z" fill="#AAAAAA"/>
<path d="M179.974 31.4581C180.48 31.4581 180.881 31.6184 181.177 31.9421C181.469 32.2658 181.617 32.7406 181.617 33.3726V36.0855H180.856V33.5884C180.856 32.6357 180.483 32.161 179.74 32.161C179.302 32.161 178.954 32.3059 178.695 32.5987C178.436 32.8885 178.306 33.2924 178.306 33.8042V36.0855H177.545V31.5136H178.306V32.312H178.316C178.713 31.7417 179.268 31.4581 179.974 31.4581Z" fill="#AAAAAA"/>
<path d="M189.115 31.5136H189.877V36.0855H189.143V35.3641H189.134C188.745 35.882 188.215 36.1441 187.537 36.1441C186.893 36.1441 186.356 35.9314 185.931 35.5059C185.505 35.0805 185.292 34.5225 185.292 33.835C185.292 33.1598 185.502 32.5957 185.924 32.1394C186.347 31.6862 186.88 31.4581 187.525 31.4581C188.175 31.4581 188.702 31.7047 189.1 32.198H189.109V31.5136H189.115ZM187.605 35.4474C188.03 35.4474 188.394 35.2963 188.693 34.9911C188.992 34.689 189.143 34.3005 189.143 33.8319C189.143 33.3633 188.998 32.9656 188.705 32.645C188.415 32.3244 188.049 32.161 187.611 32.161C187.173 32.161 186.806 32.3151 186.507 32.6265C186.211 32.9348 186.06 33.3386 186.06 33.8319C186.06 34.3005 186.202 34.689 186.489 34.9911C186.778 35.2963 187.148 35.4474 187.605 35.4474Z" fill="#AAAAAA"/>
<path d="M194.408 31.5135H195.17V36.0855H194.408V35.324H194.399C194.017 35.8697 193.518 36.141 192.898 36.141C192.352 36.141 191.93 35.9838 191.631 35.6662C191.332 35.3518 191.181 34.8739 191.181 34.2358V31.5135H191.942V34.02C191.942 34.5256 192.035 34.8924 192.22 35.1144C192.405 35.3364 192.685 35.4474 193.058 35.4474C193.434 35.4474 193.752 35.2932 194.017 34.9818C194.279 34.6735 194.412 34.2543 194.412 33.7302V31.5135H194.408Z" fill="#AAAAAA"/>
<path d="M197.864 36.141C197.069 36.141 196.671 35.6693 196.671 34.7228V32.1702H196.088V31.5135H196.671V29.9567L197.433 29.8734V31.5166H198.952V32.1733H197.433V34.6149C197.433 34.8955 197.476 35.102 197.559 35.2346C197.642 35.3672 197.79 35.4319 197.997 35.4319C198.234 35.4319 198.49 35.3548 198.767 35.1976L198.974 35.8635C198.632 36.0485 198.262 36.141 197.864 36.141Z" fill="#AAAAAA"/>
<path d="M201.863 36.141C201.163 36.141 200.593 35.919 200.155 35.4751C199.717 35.0312 199.499 34.4732 199.499 33.8042C199.499 33.1352 199.717 32.5772 200.155 32.1301C200.593 31.6831 201.163 31.4581 201.863 31.4581C202.538 31.4581 203.099 31.677 203.543 32.1147C203.987 32.5525 204.209 33.1167 204.209 33.8042C204.209 34.4917 203.987 35.0527 203.543 35.4874C203.096 35.9252 202.538 36.141 201.863 36.141ZM201.863 35.4474C202.307 35.4474 202.68 35.2932 202.985 34.9818C203.287 34.6736 203.442 34.2789 203.442 33.8042C203.442 33.3232 203.291 32.9286 202.991 32.6203C202.692 32.3151 202.316 32.161 201.866 32.161C201.398 32.161 201.012 32.3182 200.716 32.6357C200.42 32.9502 200.269 33.3417 200.269 33.8042C200.269 34.2666 200.417 34.6581 200.716 34.9726C201.009 35.2901 201.391 35.4474 201.863 35.4474Z" fill="#AAAAAA"/>
<path d="M207.717 31.4581C208.362 31.4581 208.895 31.6862 209.317 32.1394C209.74 32.5926 209.952 33.1568 209.952 33.835C209.952 34.5225 209.74 35.0805 209.314 35.5059C208.889 35.9314 208.355 36.1441 207.717 36.1441C207.067 36.1441 206.546 35.9005 206.16 35.4134H206.142V37.9476H205.39V31.5197H206.151V32.1949H206.16C206.555 31.7016 207.073 31.4581 207.717 31.4581ZM207.643 35.4474C208.1 35.4474 208.47 35.2963 208.756 34.9911C209.04 34.689 209.182 34.3005 209.182 33.8319C209.182 33.3325 209.034 32.9286 208.741 32.6203C208.448 32.3151 208.078 32.161 207.634 32.161C207.202 32.161 206.842 32.3213 206.555 32.645C206.268 32.9687 206.123 33.3633 206.123 33.8319C206.123 34.3005 206.274 34.689 206.573 34.9911C206.873 35.2963 207.23 35.4474 207.643 35.4474Z" fill="#AAAAAA"/>
<path d="M211.565 30.6688C211.408 30.6688 211.278 30.6164 211.177 30.5147C211.075 30.4129 211.022 30.2834 211.022 30.1355C211.022 29.9844 211.075 29.858 211.177 29.7563C211.278 29.6545 211.411 29.6021 211.565 29.6021C211.716 29.6021 211.843 29.6545 211.95 29.7624C212.058 29.8703 212.111 29.9936 212.111 30.1385C212.111 30.2896 212.058 30.416 211.95 30.5177C211.846 30.6195 211.716 30.6688 211.565 30.6688ZM211.183 36.0855V31.5135H211.944V36.0855H211.183Z" fill="#AAAAAA"/>
<path d="M213.528 36.0855V29.1767H214.29V36.0855H213.528Z" fill="#AAAAAA"/>
<path d="M217.891 36.141C217.191 36.141 216.62 35.919 216.183 35.4751C215.745 35.0312 215.526 34.4732 215.526 33.8042C215.526 33.1352 215.745 32.5772 216.183 32.1301C216.62 31.6831 217.191 31.4581 217.891 31.4581C218.566 31.4581 219.127 31.677 219.571 32.1147C220.015 32.5525 220.237 33.1167 220.237 33.8042C220.237 34.4917 220.015 35.0527 219.571 35.4874C219.127 35.9252 218.569 36.141 217.891 36.141ZM217.891 35.4474C218.334 35.4474 218.707 35.2932 219.013 34.9818C219.315 34.6736 219.469 34.2789 219.469 33.8042C219.469 33.3232 219.318 32.9286 219.019 32.6203C218.72 32.3151 218.344 32.161 217.894 32.161C217.425 32.161 217.04 32.3182 216.744 32.6357C216.448 32.9502 216.297 33.3417 216.297 33.8042C216.297 34.2666 216.445 34.6581 216.744 34.9726C217.04 35.2901 217.422 35.4474 217.891 35.4474Z" fill="#AAAAAA"/>
<path d="M222.66 36.141C221.865 36.141 221.467 35.6693 221.467 34.7228V32.1702H220.884V31.5135H221.467V29.9567L222.228 29.8734V31.5166H223.748V32.1733H222.228V34.6149C222.228 34.8955 222.272 35.102 222.355 35.2346C222.438 35.3672 222.586 35.4319 222.793 35.4319C223.03 35.4319 223.286 35.3548 223.563 35.1976L223.77 35.8635C223.431 36.0485 223.061 36.141 222.66 36.141Z" fill="#AAAAAA"/>
</g>
<defs>
<clipPath id="clip0">
<rect width="223.767" height="38" fill="white"/>
</clipPath>
</defs>
</svg>
