<svg width="18" height="18" viewBox="0 0 18 18" fill="none" xmlns="http://www.w3.org/2000/svg">
<path d="M8.9999 0C4.03739 0 0 4.03739 0 9C0 11.296 0.864721 13.4823 2.43473 15.1561C2.70775 15.4472 3.16487 15.4618 3.456 15.1888C3.74703 14.9158 3.76167 14.4586 3.48865 14.1675C2.17086 12.7625 1.44506 10.9273 1.44506 9C1.44506 4.83419 4.83419 1.44506 8.9999 1.44506C13.1657 1.44506 16.5549 4.83419 16.5549 9C16.5549 13.1658 13.1657 16.5549 8.9999 16.5549C8.26138 16.5549 7.53741 16.4498 6.84003 16.2419L7.57903 13.3534C8.03624 13.4649 8.50801 13.5217 8.9896 13.5217C12.025 13.5217 14.4945 11.2429 14.4945 8.44202C14.4945 5.64102 12.025 3.36216 8.9896 3.36216C5.95421 3.36216 3.4847 5.64102 3.4847 8.44202C3.4847 9.45134 3.80454 10.4267 4.40973 11.2625C4.64373 11.5857 5.09556 11.658 5.41867 11.4239C5.74188 11.1899 5.81413 10.7382 5.58013 10.415C5.15461 9.82725 4.92976 9.14508 4.92976 8.44202C4.92976 6.43782 6.75101 4.80722 8.9896 4.80722C11.2282 4.80722 13.0494 6.43782 13.0494 8.44202C13.0494 10.4461 11.2283 12.0766 8.9896 12.0766C8.62987 12.0766 8.27776 12.0354 7.93721 11.9536L8.94865 8.00002C9.04749 7.61342 8.81426 7.21988 8.42776 7.12095C8.04116 7.02201 7.64762 7.25524 7.54868 7.64184L5.27522 16.5283C5.18486 16.8814 5.37185 17.2466 5.71105 17.3799C6.75882 17.7913 7.86544 18 8.9999 18C13.9626 18 18 13.9626 18 9C18 4.03739 13.9626 0 8.9999 0Z" fill="#97ADB8"/>
</svg>
