<svg width="60" height="60" viewBox="0 0 60 60" fill="none" xmlns="http://www.w3.org/2000/svg">
<path d="M59.7183 52.604C57.6028 48.2714 53.2088 45.517 48.3871 45.5009C47.4014 45.4986 46.419 45.6134 45.4607 45.8426C45.1852 45.404 44.8606 44.9986 44.493 44.6338C44.5024 44.6007 44.5104 44.5672 44.5161 44.5332V29.9679C52.3275 29.4458 58.3173 22.8242 58.0565 14.9996C57.7951 7.1754 51.3768 0.967773 43.5484 0.967773C35.72 0.967773 29.3016 7.1754 29.0403 14.9996C28.7794 22.8242 34.7692 29.4458 42.5806 29.9679V43.2512C41.3799 42.6804 40.0375 42.4786 38.7224 42.6705C36.4902 40.1363 33.2666 38.6988 29.8899 38.731C26.5137 38.7636 23.3179 40.2634 21.1353 42.8396C19.5741 42.4106 17.9098 42.5618 16.4516 43.2654V40.6131C24.263 40.0909 30.2528 33.4693 29.992 25.6447C29.7306 17.8206 23.3123 11.6129 15.4839 11.6129C7.65546 11.6129 1.23708 17.8206 0.975775 25.6447C0.714938 33.4693 6.70473 40.0909 14.5161 40.6131V44.5332C14.5161 44.5681 14.5327 44.597 14.5355 44.63C14.2501 44.9145 13.9911 45.2245 13.7615 45.5553C13.3792 45.5203 12.9851 45.5009 12.5806 45.5009C5.63587 45.5089 0.008033 51.1368 0 58.0816C0 58.616 0.43331 59.0493 0.967741 59.0493H59.0322C59.5667 59.0493 60 58.616 60 58.0816V53.868C60.0019 53.4309 59.9059 52.999 59.7183 52.604ZM30.9677 15.5009C30.9611 8.6771 36.3957 3.09227 43.2176 2.91271C50.039 2.73315 55.76 8.02454 56.112 14.8394C56.4645 21.6542 51.3196 27.5074 44.5161 28.0324V23.7267L48.0001 21.1141C48.4277 20.7933 48.5142 20.1865 48.1933 19.7589C47.873 19.3312 47.2662 19.2448 46.8386 19.5656L44.5161 21.3074V17.4364C44.5161 16.902 44.0828 16.4687 43.5484 16.4687C43.0139 16.4687 42.5806 16.902 42.5806 17.4364V19.7414L40.1098 18.5057C39.6316 18.2671 39.0504 18.4608 38.8113 18.9395C38.5722 19.4177 38.7664 19.9994 39.245 20.238L42.5806 21.9056V28.0324C36.0337 27.523 30.9781 22.0677 30.9677 15.5009ZM2.90322 26.1461C2.89661 19.3223 8.33118 13.7374 15.1531 13.5579C21.9745 13.3783 27.6955 18.6697 28.0475 25.4845C28.4 32.2994 23.2551 38.1526 16.4516 38.6776V34.3719L19.9356 31.7593C20.3632 31.4384 20.4497 30.8317 20.1288 30.404C19.8085 29.9764 19.2017 29.8899 18.7741 30.2108L16.4516 31.9525V28.0816C16.4516 27.5471 16.0183 27.1138 15.4839 27.1138C14.9494 27.1138 14.5161 27.5471 14.5161 28.0816V30.3866L12.0453 29.1462C11.5671 28.9071 10.9859 29.1013 10.7467 29.5795C10.5077 30.0582 10.7019 30.6394 11.1805 30.8785L14.5161 32.5508V38.6776C7.96922 38.1682 2.91362 32.7128 2.90322 26.1461ZM58.0645 57.1138H1.97896C2.48598 51.6358 7.07897 47.443 12.5806 47.4364C13.09 47.434 13.5985 47.4718 14.1017 47.5498C14.5062 47.6164 14.9083 47.4194 15.1035 47.0588C16.2919 44.9367 18.8554 44.0044 21.1297 44.8673C21.5332 45.0208 21.9897 44.8885 22.2486 44.5431C24.048 42.1393 26.8605 40.7066 29.8625 40.6632C32.8645 40.6202 35.7171 41.9716 37.585 44.3224C37.8156 44.6154 38.1946 44.7486 38.5575 44.6641C40.8148 44.1188 43.1401 45.2604 44.0894 47.3792C44.2888 47.8281 44.7949 48.0545 45.2622 47.9037C46.2739 47.59 47.3277 47.4321 48.3871 47.4364C52.4678 47.4496 56.1862 49.7811 57.9766 53.4479C58.0366 53.5798 58.0669 53.7234 58.0645 53.868V57.1138Z" fill="#97ADB8"/>
<path d="M48.3873 53.2427H36.7744C36.24 53.2427 35.8066 53.676 35.8066 54.2104C35.8066 54.7448 36.24 55.1782 36.7744 55.1782H48.3873C48.9217 55.1782 49.355 54.7448 49.355 54.2104C49.355 53.676 48.9217 53.2427 48.3873 53.2427Z" fill="#97ADB8"/>
<path d="M52.2582 53.2427H51.2905C50.7561 53.2427 50.3228 53.676 50.3228 54.2104C50.3228 54.7448 50.7561 55.1782 51.2905 55.1782H52.2582C52.7927 55.1782 53.226 54.7448 53.226 54.2104C53.226 53.676 52.7927 53.2427 52.2582 53.2427Z" fill="#97ADB8"/>
</svg>
