<svg width="52" height="60" viewBox="0 0 52 60" fill="none" xmlns="http://www.w3.org/2000/svg">
<path d="M46.3227 58.0645H26.9679V52.2018C35.0562 51.3551 41.484 39.9869 41.484 26.129C41.484 11.7211 34.5374 0 26.0002 0C17.463 0 10.5163 11.7211 10.5163 26.129C10.5163 39.9869 16.9441 51.3551 25.0324 52.2018V58.0645H1.80661C1.27218 58.0645 0.838867 58.4978 0.838867 59.0323C0.838867 59.5667 1.27218 60 1.80661 60H46.3227C46.8572 60 47.2905 59.5667 47.2905 59.0323C47.2905 58.4978 46.8572 58.0645 46.3227 58.0645ZM12.4518 26.129C12.4518 12.7886 18.529 1.93548 26.0002 1.93548C33.4713 1.93548 39.5485 12.7886 39.5485 26.129C39.5485 38.8878 33.9878 49.3643 26.9679 50.2541V40.0781L32.4908 34.5552C32.8575 34.1753 32.8523 33.5719 32.479 33.1986C32.1057 32.8253 31.5023 32.8201 31.1224 33.1867L26.9679 37.3412V25.1613C26.9679 24.6269 26.5346 24.1935 26.0002 24.1935C25.4657 24.1935 25.0324 24.6269 25.0324 25.1613V34.438L18.9424 28.348C18.5625 27.9813 17.9591 27.9865 17.5858 28.3598C17.2125 28.7331 17.2073 29.3366 17.574 29.7165L25.0324 37.1749V50.2541C18.0125 49.3643 12.4518 38.8878 12.4518 26.129Z" fill="#97ADB8"/>
<path d="M33.7421 32.9035C33.9986 32.9035 34.2448 32.8015 34.4263 32.62L35.394 31.6523C35.7607 31.2724 35.7555 30.6689 35.3822 30.2956C35.0089 29.9223 34.4055 29.9171 34.0256 30.2838L33.0578 31.2516C32.7814 31.5285 32.6982 31.9448 32.848 32.3063C32.9978 32.6677 33.3508 32.9035 33.7421 32.9035Z" fill="#97ADB8"/>
<path d="M50.1938 58.0645H49.226C48.6916 58.0645 48.2583 58.4978 48.2583 59.0322C48.2583 59.5666 48.6916 59.9999 49.226 59.9999H50.1938C50.7282 59.9999 51.1615 59.5666 51.1615 59.0322C51.1615 58.4978 50.7282 58.0645 50.1938 58.0645Z" fill="#97ADB8"/>
</svg>
