<svg width="60" height="60" viewBox="0 0 60 60" fill="none" xmlns="http://www.w3.org/2000/svg">
<g opacity="0.5" clip-path="url(#clip0)">
<path d="M50.3271 58.0652H30.9804V53.2285C31.1844 53.229 31.3833 53.1643 31.5481 53.0439L35.989 49.8141C38.771 52.759 43.3631 53.0344 46.4776 50.4437C49.5922 47.8529 50.1566 43.2874 47.7676 40.0155C45.378 36.7441 40.8573 35.8925 37.4414 38.0709C34.0255 40.2493 32.891 44.7072 34.8497 48.2535L30.9804 51.0648V38.6694C41.4633 38.1446 49.6163 29.3559 49.3536 18.8631C49.091 8.36973 40.5092 0 30.0131 0C19.5164 0 10.9346 8.36973 10.672 18.8631C10.4098 29.3559 18.5623 38.1446 29.0457 38.6694V58.0652H5.82964C5.29543 58.0652 4.8623 58.4984 4.8623 59.0326C4.8623 59.5668 5.29543 59.9999 5.82964 59.9999H50.3271C50.8613 59.9999 51.2945 59.5668 51.2945 59.0326C51.2945 58.4984 50.8613 58.0652 50.3271 58.0652ZM35.8171 44.5225C35.8109 41.7523 37.7593 39.3623 40.4738 38.8101C43.1883 38.258 45.9155 39.6962 46.9925 42.2487C48.0694 44.8007 47.197 47.7585 44.9071 49.3176C42.6177 50.8768 39.5461 50.6047 37.5657 48.6677L42.1898 45.3052C42.622 44.9911 42.7178 44.386 42.4033 43.9538C42.0892 43.5216 41.4841 43.4258 41.0519 43.7399L36.4292 47.1024C36.0273 46.3018 35.818 45.4185 35.8171 44.5225ZM12.601 19.3718C12.5887 9.87836 20.1833 2.12455 29.6753 1.94081C39.1669 1.7566 47.0567 9.21001 47.4128 18.6968C47.7685 28.1836 40.4592 36.2071 30.9804 36.7347V30.413L36.501 24.8924C36.8675 24.5131 36.8623 23.9095 36.4892 23.5363C36.1161 23.1632 35.5124 23.158 35.1331 23.5245L30.9804 27.6773V19.3718C30.9804 18.8376 30.5473 18.4044 30.0131 18.4044C29.4788 18.4044 29.0457 18.8376 29.0457 19.3718V24.7752L22.9583 18.6878C22.5785 18.3213 21.9754 18.3265 21.6022 18.6996C21.2291 19.0728 21.2239 19.6764 21.5904 20.0557L29.0457 27.511V36.7347C19.8296 36.2184 12.6161 28.6026 12.601 19.3718Z" fill="#97ADB8"/>
<path d="M37.752 23.2412C38.0085 23.2412 38.2546 23.1392 38.4359 22.9578L39.4033 21.9905C39.7698 21.6112 39.7646 21.0075 39.3915 20.6344C39.0183 20.2612 38.4147 20.2561 38.0354 20.6226L37.0681 21.5899C36.7913 21.8667 36.7086 22.2828 36.8584 22.6442C37.0081 23.0055 37.3604 23.2412 37.752 23.2412Z" fill="#97ADB8"/>
<path d="M54.1964 58.0654H53.2291C52.6948 58.0654 52.2617 58.4986 52.2617 59.0328C52.2617 59.567 52.6948 60.0001 53.2291 60.0001H54.1964C54.7306 60.0001 55.1637 59.567 55.1637 59.0328C55.1637 58.4986 54.7306 58.0654 54.1964 58.0654Z" fill="#97ADB8"/>
</g>
<defs>
<clipPath id="clip0">
<rect width="60" height="60" fill="white"/>
</clipPath>
</defs>
</svg>
