<svg width="34" height="30" viewBox="0 0 34 30" fill="none" xmlns="http://www.w3.org/2000/svg">
<path d="M26.538 30C24.5065 30 22.6965 29.0754 21.0948 27.2137C19.4931 25.3644 18.6987 22.9154 18.6987 19.8667C18.6987 17.2803 20.1572 13.3194 23.0611 7.99666C25.978 2.66138 28.1397 0 29.5591 0C30.3534 0 30.7571 0.39983 30.7571 1.187C30.7571 1.39941 29.9237 3.12371 28.2699 6.37235C26.6031 9.621 25.7827 12.1699 25.7827 13.9942C25.7827 15.4061 26.7203 16.5681 28.6084 17.4677C30.4836 18.3673 31.7467 19.3045 32.3718 20.279C32.9968 21.2536 33.3094 22.3157 33.3094 23.4402C33.3094 25.4769 32.6843 27.0887 31.4342 28.2507C30.145 29.4128 28.5303 30 26.538 30Z" fill="#FF7F7F"/>
<path d="M7.83919 30C5.80777 30 3.9847 29.0754 2.39603 27.2137C0.794332 25.3644 0 22.9154 0 19.8667C0 17.2803 1.45845 13.3194 4.36234 7.99666C7.26623 2.66138 9.44088 0 10.8472 0C11.6416 0 12.0453 0.39983 12.0453 1.187C12.0453 1.39941 11.2119 3.12371 9.55809 6.37235C7.89129 9.621 7.0709 12.1699 7.0709 13.9942C7.0709 15.4061 8.00848 16.5681 9.89666 17.4677C11.7718 18.3673 13.0349 19.3045 13.66 20.279C14.285 21.2536 14.5976 22.3157 14.5976 23.4402C14.5976 25.4769 13.9725 27.0887 12.7224 28.2507C11.4723 29.4128 9.83154 30 7.83919 30Z" fill="#FF7F7F"/>
</svg>
